<?xml version="1.0" standalone="no"?>
<!DOCTYPE svg PUBLIC "-//W3C//DTD SVG 20010904//EN" "http://www.w3.org/TR/2001/REC-SVG-20010904/DTD/svg10.dtd">
<svg
  version="1.0"
  xmlns="http://www.w3.org/2000/svg"
  width="996.946949pt"
  height="1031.381980pt"
  viewBox="0 0 996.946949 1031.381980"
  preserveAspectRatio="xMidYMid meet"
>
  <g
    transform="translate(-503.010768,1590.880053) scale(0.100000,-0.100000)"
    fill="currentColor"
    stroke="none"
  >
    <path
      d="M8295 15904 c-11 -2 -45 -9 -75 -15 -214 -41 -362 -154 -463 -354
-148 -292 -418 -1148 -513 -1625 -39 -200 -50 -228 -98 -252 -23 -11 -56 -34
-73 -51 -52 -49 -55 -63 -113 -502 -11 -82 -27 -195 -35 -250 -26 -168 -53
-375 -60 -468 -7 -93 -22 -117 -72 -117 -12 0 -95 -16 -185 -36 -90 -20 -174
-39 -188 -41 -52 -11 -249 -66 -365 -103 -263 -83 -562 -210 -665 -281 -251
-173 -360 -338 -360 -546 0 -142 47 -280 158 -458 118 -190 394 -491 687 -748
268 -236 421 -401 525 -567 94 -149 123 -231 189 -518 17 -73 40 -151 52 -172
38 -68 112 -75 167 -17 52 56 117 248 166 487 48 242 57 327 101 1000 18 264
47 537 75 690 5 30 19 106 30 167 30 165 97 351 166 464 12 19 38 67 57 105
36 71 80 115 98 97 10 -10 -35 -150 -106 -333 -79 -203 -93 -262 -131 -544
-47 -353 -58 -502 -58 -786 -1 -304 6 -371 61 -610 59 -256 135 -462 294 -792
217 -450 257 -559 285 -773 14 -114 14 -132 0 -218 -9 -52 -25 -125 -35 -163
-45 -165 -55 -236 -55 -409 0 -144 4 -183 22 -252 72 -268 198 -492 367 -651
122 -115 295 -221 421 -258 78 -23 239 -23 313 0 101 30 105 28 221 -90 114
-116 150 -144 255 -196 100 -50 206 -84 331 -104 153 -25 590 -25 713 -1 190
38 325 94 441 180 58 44 94 80 205 205 l30 34 80 -21 c151 -38 202 -43 279
-31 122 20 210 59 348 157 157 110 296 274 392 462 101 197 131 294 145 464
13 161 -1 283 -55 492 -43 162 -48 191 -48 290 0 120 16 209 65 363 35 108 36
113 127 302 237 496 354 792 405 1020 58 259 77 402 77 570 0 122 -23 470 -40
605 -6 44 -19 152 -30 240 -23 183 -46 287 -95 427 -42 121 -154 386 -166 394
-17 10 -9 34 11 34 40 0 115 -94 183 -227 127 -250 160 -359 201 -668 9 -66
19 -136 22 -155 10 -74 35 -363 44 -520 33 -592 37 -630 76 -835 59 -309 153
-563 229 -621 45 -34 84 -31 128 8 37 35 50 71 77 233 26 154 71 312 115 400
94 192 261 386 565 655 161 142 398 380 486 486 113 137 220 326 275 484 27
80 38 270 19 334 -33 111 -72 173 -177 279 -164 166 -430 305 -833 437 -98 32
-561 151 -743 191 -32 7 -60 15 -62 18 -1 3 -8 60 -15 126 -10 111 -37 315
-75 575 -9 58 -20 137 -25 175 -25 173 -52 333 -61 362 -9 28 -52 73 -124 128
-28 21 -26 17 -114 385 -18 74 -37 149 -42 165 -5 17 -27 93 -50 170 -58 200
-191 603 -261 790 -152 403 -258 555 -458 654 -126 63 -308 88 -507 71 -152
-14 -222 -27 -453 -87 -221 -57 -275 -70 -364 -88 -263 -53 -489 -70 -736 -56
-156 9 -361 33 -399 46 -7 3 -65 16 -130 29 -64 14 -192 43 -284 66 -235 57
-295 69 -427 85 -105 14 -306 18 -355 9z m2305 -1983 c63 -6 171 -15 240 -21
224 -19 398 -38 664 -75 458 -62 1259 -237 1312 -286 24 -23 40 -86 54 -219
11 -99 20 -162 44 -320 8 -52 18 -113 21 -135 28 -189 37 -247 45 -295 5 -30
12 -94 16 -142 5 -70 4 -89 -7 -93 -8 -3 -81 6 -164 20 -143 25 -187 31 -370
56 -74 9 -184 25 -345 49 -201 29 -323 44 -655 80 -106 11 -431 34 -735 52
-272 15 -1165 15 -1410 -1 -760 -49 -871 -60 -1590 -161 -292 -41 -314 -44
-532 -81 -70 -12 -135 -19 -143 -15 -9 3 -15 18 -15 40 0 41 22 224 51 426 12
80 25 174 29 210 5 36 16 117 25 180 8 63 20 148 25 188 5 41 14 91 20 111 20
75 47 87 415 171 135 32 389 82 500 99 72 12 157 25 190 31 33 5 112 17 175
25 63 8 147 19 185 25 317 43 741 83 1020 94 149 6 819 -3 935 -13z m256
-1624 c203 -17 217 -24 131 -66 -157 -76 -291 -300 -342 -571 -46 -237 -55
-462 -30 -737 28 -313 58 -483 112 -643 89 -263 200 -458 469 -826 378 -518
394 -542 545 -849 169 -345 272 -649 366 -1081 26 -119 28 -145 28 -344 -1
-206 -2 -219 -28 -305 -98 -316 -358 -624 -619 -732 -85 -35 -244 -43 -368
-18 -80 16 -238 62 -305 88 -145 58 -475 245 -673 384 l-95 66 5 119 c4 84 9
123 19 133 8 7 70 26 138 44 150 37 242 81 347 165 108 87 179 184 210 286 20
65 18 90 -6 90 -12 0 -31 -6 -43 -14 -34 -22 -129 -30 -186 -16 -130 31 -242
230 -201 355 39 118 195 172 277 95 20 -18 21 -27 16 -88 -9 -114 27 -162 134
-176 43 -5 60 -3 94 15 72 36 133 103 180 196 l44 86 0 116 c0 111 -2 119 -32
181 -59 119 -150 208 -278 273 -171 87 -341 116 -705 124 -225 4 -271 2 -394
-16 -323 -49 -527 -163 -617 -347 -32 -65 -34 -74 -34 -174 1 -123 22 -197 87
-297 63 -97 137 -154 204 -156 43 -1 110 44 131 89 15 30 15 39 4 67 -24 59
-24 73 2 103 24 27 30 29 99 29 88 0 124 -21 158 -91 19 -39 22 -57 18 -137
-6 -135 -41 -193 -143 -238 -59 -27 -131 -29 -195 -6 -29 11 -48 13 -54 7 -24
-24 68 -211 144 -296 95 -107 189 -161 375 -218 185 -57 169 -41 173 -180 l3
-119 -49 -46 c-44 -42 -297 -202 -467 -295 -123 -67 -347 -155 -490 -193 -50
-13 -106 -18 -200 -18 -151 0 -208 15 -339 90 -305 173 -504 488 -546 863 -22
196 7 382 134 847 61 222 157 467 284 722 139 282 302 530 507 773 122 146
199 250 282 385 156 252 213 390 273 660 31 142 60 492 60 737 0 331 -37 550
-125 743 -52 114 -202 286 -262 301 -27 7 -30 29 -7 38 22 8 179 25 339 36
198 13 1249 4 1441 -13z m-2420 -1068 c98 -18 180 -64 264 -149 155 -155 240
-323 349 -692 23 -75 41 -140 41 -143 0 -4 -12 -5 -27 -2 -165 34 -236 32
-373 -9 -283 -87 -395 -100 -495 -58 -97 40 -208 141 -312 284 -73 101 -153
221 -153 230 0 14 19 22 84 37 101 23 96 25 137 -50 79 -142 162 -230 265
-281 150 -74 343 -28 485 113 54 54 70 78 85 124 15 50 16 64 6 104 -40 149
-199 284 -357 303 -157 19 -338 -43 -455 -155 -29 -27 -58 -45 -81 -49 -19 -3
-73 -22 -120 -41 -85 -35 -123 -42 -133 -26 -9 15 62 97 205 236 108 105 149
138 209 168 121 60 248 79 376 56z m3464 -16 c84 -30 140 -69 247 -173 54 -52
138 -130 186 -174 95 -85 108 -114 48 -108 -32 3 -157 47 -176 61 -5 5 -21 11
-35 15 -14 3 -47 27 -75 52 -60 55 -113 87 -208 126 -63 26 -85 30 -177 31
-112 2 -164 -11 -242 -60 -94 -58 -165 -172 -175 -281 -7 -75 22 -136 101
-210 132 -125 356 -159 485 -75 75 49 209 199 256 287 15 28 28 40 41 39 50
-6 147 -24 155 -29 18 -11 7 -34 -85 -171 -143 -211 -231 -299 -356 -353 -42
-18 -78 -25 -156 -28 -97 -4 -108 -2 -230 37 -250 79 -307 88 -414 67 -41 -8
-78 -11 -83 -7 -8 8 49 240 90 366 61 186 147 336 261 454 71 72 150 120 245
146 73 21 225 14 297 -12z"
    />
  </g>
</svg>
